<?xml version="1.0" encoding="UTF-8"?>
<svg width="1024px" height="1024px" viewBox="0 0 1024 1024" version="1.1" xmlns="http://www.w3.org/2000/svg" xmlns:xlink="http://www.w3.org/1999/xlink">
    <title>MetalSprocket</title>
    <g id="MetalSprocket" stroke="none" fill="none" fill-rule="evenodd" stroke-width="1">
        <g id="Group" transform="translate(5, 23)" stroke="#000000">
            <path d="M927.285835,222.803034 L923.677245,231.944573 C923.374422,232.711705 923.055548,233.472403 922.720832,234.226165 L919.001904,242.60099 C918.666794,243.355641 918.315878,244.103174 917.949389,244.843095 L914.216231,252.380132 C913.849889,253.119757 913.468067,253.851613 913.071016,254.575217 L909.359003,261.340168 C908.96433,262.05944 908.554696,262.770402 908.130369,263.472589 L904.528435,269.433169 C904.10017,270.141874 903.657032,270.841484 903.199317,271.531535 L899.633653,276.907125 C899.180439,277.590389 898.713032,278.264132 898.231736,278.927914 L895.034584,283.337283 C894.549939,284.005683 894.051317,284.663838 893.539049,285.31131 L890.737086,288.852803 C889.987384,289.800377 889.20875,290.724696 888.402285,291.624455 L882.891357,297.772903 C881.800855,298.989558 880.660285,300.16039 879.472598,301.282371 L875.752028,304.79711 C874.551979,305.93077 873.304878,307.013562 872.014018,308.04263 L869.579141,309.983703 C868.750112,310.644602 867.896612,311.274209 867.020439,311.871199 C866.149083,312.464907 865.192061,312.921877 864.182556,313.226263 L858.619397,314.903668 C857.224592,315.32423 855.845843,315.796309 854.485985,316.318933 L850.397121,317.890375 C848.939997,318.45038 847.505672,319.067994 846.097532,319.741759 L843.063326,321.193561 C841.539793,321.922538 840.048265,322.716599 838.592862,323.57355 L836.635969,324.725781 C835.039421,325.665839 833.488039,326.680579 831.986982,327.766626 L831.108346,328.402338 C829.444308,329.606305 827.844274,330.896344 826.31478,332.267186 L826.034392,332.518489 C824.608389,333.796574 823.258663,335.157288 821.992182,336.593606 L821.812474,336.797413 C820.665994,338.097637 819.607935,339.47323 818.645408,340.914944 L818.509113,341.119093 C817.637666,342.424384 816.868209,343.794956 816.207589,345.218609 L816.119698,345.408017 C815.517885,346.704941 815.032789,348.052894 814.670163,349.435896 L814.629403,349.591347 C814.294102,350.870135 814.090004,352.179766 814.020274,353.499942 C813.950649,354.818132 814.05006,356.139812 814.316082,357.432756 L814.388688,357.785638 C814.70361,359.31625 815.151189,360.81654 815.726355,362.269514 L819.095762,370.781247 C819.388379,371.52045 819.666025,372.265493 819.92853,373.015918 L824.008573,384.679557 C824.296655,385.503098 824.566434,386.332927 824.817711,387.168433 L828.376414,399.001262 C828.605395,399.762633 828.818963,400.528554 829.016986,401.298556 L831.296859,410.1637 C831.686099,411.677238 832.206364,413.154017 832.851762,414.577312 L833.000437,414.905184 C833.545702,416.107655 834.242614,417.235401 835.07419,418.26094 C835.90702,419.288024 836.842306,420.227601 837.865567,421.065124 L837.990086,421.167041 C839.096824,422.072888 840.282001,422.878418 841.531585,423.574095 L841.714139,423.675727 C843.085865,424.439404 844.514423,425.096196 845.987114,425.640268 L846.217424,425.725354 C847.84402,426.326284 849.509036,426.817603 851.201295,427.196013 L851.466463,427.255308 C853.33579,427.673312 855.228036,427.981252 857.133444,428.177539 L857.510042,428.216334 C859.552248,428.426714 861.604043,428.530357 863.657054,428.52684 L864.745164,428.524976 C866.597293,428.521804 868.448245,428.431419 870.291871,428.254124 L872.554903,428.036496 C874.23572,427.874857 875.908823,427.641136 877.569591,427.335978 L880.879398,426.727818 C882.414539,426.445743 883.937883,426.102861 885.445833,425.699981 L889.678452,424.569151 C891.085886,424.193127 892.478909,423.765104 893.854658,423.285963 L899.341582,421.374996 C900.337496,421.028143 901.380586,420.835597 902.434699,420.804034 C903.494637,420.772296 904.555392,420.780264 905.614733,420.827922 L908.727934,420.96798 C910.376334,421.042139 912.020898,421.185416 913.657288,421.397436 L918.738092,422.055731 C920.357513,422.265552 921.967525,422.542514 923.563969,422.885901 L931.641937,424.623434 C932.822506,424.877369 933.995,425.167488 935.157764,425.493382 L939.510064,426.713226 C940.304553,426.935902 941.094285,427.17522 941.878736,427.431021 L947.060706,429.120809 C947.839724,429.374838 948.613365,429.645069 949.381126,429.931325 L955.4295,432.186428 C956.204878,432.475523 956.974088,432.7809 957.736619,433.102354 L964.158375,435.809525 C964.913888,436.12802 965.66268,436.46223 966.404262,436.811936 L973.388111,440.10529 C974.134157,440.4571 974.872743,440.824517 975.603382,441.207298 L983.058377,445.112957 C983.78931,445.495892 984.512129,445.894118 985.226357,446.307374 L993.162494,450.899261 C993.875885,451.312032 994.580549,451.739707 995.27602,452.182003 L1003.57367,457.459026 C1004.22874,457.875631 1004.87553,458.305124 1005.51365,458.747255 L1013.39272,464.206359 L1013.39272,464.206359 C1014.20243,480.725548 1014.20243,497.274452 1013.39272,513.793641 L1005.51365,519.252745 C1004.87553,519.694876 1004.22874,520.124369 1003.57367,520.540974 L995.27602,525.817997 C994.580549,526.260293 993.875885,526.687968 993.162494,527.100739 L985.226357,531.692626 C984.512129,532.105882 983.78931,532.504108 983.058377,532.887043 L975.603382,536.792702 C974.872743,537.175483 974.134157,537.5429 973.388111,537.89471 L966.404262,541.188064 C965.66268,541.53777 964.913888,541.87198 964.158375,542.190475 L957.736619,544.897646 C956.974088,545.2191 956.204878,545.524477 955.4295,545.813572 L949.381126,548.068675 C948.613365,548.354931 947.839724,548.625162 947.060706,548.879191 L941.878736,550.568979 C941.094285,550.82478 940.304553,551.064098 939.510064,551.286774 L935.157764,552.506618 C933.995,552.832512 932.822506,553.122631 931.641937,553.376566 L923.563969,555.114099 C921.967525,555.457486 920.357513,555.734448 918.738092,555.944269 L913.657288,556.602564 C912.020898,556.814584 910.376334,556.957861 908.727934,557.03202 L905.614733,557.172078 C904.555392,557.219736 903.494637,557.227704 902.434699,557.195966 C901.380586,557.164403 900.337496,556.971857 899.341582,556.625004 L893.854658,554.714037 C892.478909,554.234896 891.085886,553.806873 889.678452,553.430849 L885.445833,552.300019 C883.937883,551.897139 882.414539,551.554257 880.879398,551.272182 L877.569591,550.664022 C875.908823,550.358864 874.23572,550.125143 872.554903,549.963504 L870.291871,549.745876 C868.448245,549.568581 866.597293,549.478196 864.745164,549.475024 L863.657054,549.47316 C861.604043,549.469643 859.552248,549.573286 857.510042,549.783666 L857.133444,549.822461 C855.228036,550.018748 853.33579,550.326688 851.466463,550.744692 L851.201295,550.803987 C849.509036,551.182397 847.84402,551.673716 846.217424,552.274646 L845.987114,552.359732 C844.514423,552.903804 843.085865,553.560596 841.714139,554.324273 L841.531585,554.425905 C840.282001,555.121582 839.096824,555.927112 837.990086,556.832959 L837.865567,556.934876 C836.842306,557.772399 835.90702,558.711976 835.07419,559.73906 C834.242614,560.764599 833.545702,561.892345 833.000437,563.094816 L832.851762,563.422688 C832.206364,564.845983 831.686099,566.322762 831.296859,567.8363 L829.016986,576.701444 C828.818963,577.471446 828.605395,578.237367 828.376414,578.998738 L824.817711,590.831567 C824.566434,591.667073 824.296655,592.496902 824.008573,593.320443 L819.92853,604.984082 C819.666025,605.734507 819.388379,606.47955 819.095762,607.218753 L815.726355,615.730486 C815.151189,617.18346 814.70361,618.68375 814.388688,620.214362 L814.316082,620.567244 C814.05006,621.860188 813.950649,623.181868 814.020274,624.500058 C814.090004,625.820234 814.294102,627.129865 814.629403,628.408653 L814.670163,628.564104 C815.032789,629.947106 815.517885,631.295059 816.119698,632.591983 L816.207589,632.781391 C816.868209,634.205044 817.637666,635.575616 818.509113,636.880907 L818.645408,637.085056 C819.607935,638.52677 820.665994,639.902363 821.812474,641.202587 L821.992182,641.406394 C823.258663,642.842712 824.608389,644.203426 826.034392,645.481511 L826.31478,645.732814 C827.844274,647.103656 829.444308,648.393695 831.108346,649.597662 L831.986982,650.233374 C833.488039,651.319421 835.039421,652.334161 836.635969,653.274219 L838.592862,654.42645 C840.048265,655.283401 841.539793,656.077462 843.063326,656.806439 L846.097532,658.258241 C847.505672,658.932006 848.939997,659.54962 850.397121,660.109625 L854.485985,661.681067 C855.845843,662.203691 857.224592,662.67577 858.619397,663.096332 L864.182556,664.773737 C865.192061,665.078123 866.149083,665.535093 867.020439,666.128801 C867.896612,666.725791 868.750112,667.355398 869.579141,668.016297 L872.014018,669.95737 C873.304878,670.986438 874.551979,672.06923 875.752028,673.20289 L879.472598,676.717629 C880.660285,677.83961 881.800855,679.010442 882.891357,680.227097 L888.402285,686.375545 C889.20875,687.275304 889.987384,688.199623 890.737086,689.147197 L893.539049,692.68869 C894.051317,693.336162 894.549939,693.994317 895.034584,694.662717 L898.231736,699.072086 C898.713032,699.735868 899.180439,700.409611 899.633653,701.092875 L903.199317,706.468465 C903.657032,707.158516 904.10017,707.858126 904.528435,708.566831 L908.130369,714.527411 C908.554696,715.229598 908.96433,715.94056 909.359003,716.659832 L913.071016,723.424783 C913.468067,724.148387 913.849889,724.880243 914.216231,725.619868 L917.949389,733.156905 C918.315878,733.896826 918.666794,734.644359 919.001904,735.39901 L922.720832,743.773835 C923.055548,744.527597 923.374422,745.288295 923.677245,746.055427 L927.285835,755.196966 C927.571064,755.919529 927.841995,756.647656 928.09847,757.380919 L931.261822,766.42498 L931.261822,766.42498 C922.201709,780.264949 912.469055,793.653294 902.098815,806.541933 L892.513327,806.329821 C891.737456,806.312653 890.962,806.280177 890.18741,806.232414 L880.369835,805.627041 C879.547439,805.57633 878.726195,805.508397 877.906644,805.423287 L868.784625,804.475967 C867.964071,804.390752 867.145395,804.288337 866.329136,804.168789 L858.000143,802.948935 C857.184169,802.829429 856.370791,802.692827 855.560545,802.539221 L847.973023,801.100782 C847.167581,800.948087 846.365408,800.778621 845.567029,800.592495 L838.779191,799.010049 C837.97335,798.822184 837.171551,798.617387 836.374325,798.395794 L830.154627,796.667002 C829.365189,796.447574 828.580408,796.211725 827.800794,795.959608 L822.614699,794.282494 C821.829604,794.028604 821.049921,793.758273 820.276165,793.471679 L816.037939,791.901867 C814.905444,791.482398 813.786095,791.028256 812.681475,790.540083 L805.125227,787.200694 C803.631347,786.540493 802.165525,785.818545 800.731549,785.036715 L796.235485,782.585382 C794.786335,781.795279 793.370979,780.944715 791.993151,780.035932 L789.393041,778.320961 C788.508024,777.737224 787.645186,777.120535 786.806344,776.472192 C785.972117,775.827416 785.241435,775.058817 784.639653,774.193063 L781.325773,769.425555 C780.49378,768.228609 779.617713,767.062908 778.699377,765.930852 L775.942738,762.532674 C774.958856,761.319819 773.927206,760.146507 772.850224,759.015511 L770.532969,756.582038 C769.367923,755.358561 768.150864,754.18569 766.885157,753.066667 L765.185169,751.563693 C763.796974,750.336377 762.351733,749.17514 760.85425,748.08384 L759.977775,747.445104 C758.318051,746.23557 756.596307,745.113519 754.819572,744.083534 L754.493508,743.894512 C752.83644,742.933898 751.124414,742.071379 749.366264,741.311405 L749.117076,741.203691 C747.525322,740.515643 745.889273,739.934974 744.219913,739.465584 L743.983772,739.399186 C742.472214,738.974165 740.930144,738.666287 739.371264,738.478285 L739.164014,738.45329 C737.743799,738.282011 736.31116,738.237451 734.883046,738.320137 L734.722524,738.329431 C733.402023,738.405887 732.092737,738.616583 730.814917,738.958262 C729.539016,739.299428 728.311987,739.802374 727.163694,740.45486 L726.850539,740.632801 C725.491338,741.405129 724.201907,742.294246 722.996832,743.290095 L715.937877,749.123465 C715.325378,749.629622 714.702716,750.123354 714.070272,750.604358 L704.230318,758.088138 C703.536306,758.615969 702.830679,759.12835 702.113956,759.624904 L691.95162,766.665495 C691.298539,767.117958 690.636386,767.557182 689.965564,767.9829 L682.232731,772.890326 C680.912946,773.72789 679.668538,774.678695 678.513582,775.731985 L678.247133,775.97498 C677.27163,776.864615 676.41397,777.875416 675.695048,778.98276 C674.975046,780.091769 674.369921,781.271257 673.88905,782.502951 L673.830694,782.652422 C673.310702,783.984322 672.910385,785.359893 672.63449,786.762829 L672.59425,786.967451 C672.291431,788.507294 672.107879,790.068207 672.045228,791.636293 L672.035439,791.881299 C671.966245,793.613112 672.013233,795.347615 672.176085,797.073141 L672.201593,797.343418 C672.381478,799.249424 672.673183,801.143216 673.075201,803.015007 L673.153642,803.380222 C673.5852,805.389551 674.12145,807.374958 674.760198,809.328325 L675.095453,810.35357 C675.671664,812.115691 676.330611,813.849673 677.0701,815.549745 L677.973544,817.626744 C678.647667,819.176542 679.388071,820.696658 680.192706,822.182887 L681.791317,825.135659 C682.535005,826.509314 683.332952,827.852893 684.183271,829.163219 L686.564663,832.832903 C687.358206,834.055738 688.196796,835.248743 689.078707,836.409462 L692.591655,841.032998 C693.229337,841.872276 693.734838,842.804191 694.090608,843.796387 C694.448348,844.794075 694.768561,845.804823 695.050571,846.826503 L695.878278,849.825159 C696.317784,851.417423 696.690229,853.027442 696.994629,854.65096 L697.93681,859.676097 C698.238056,861.282797 698.472398,862.901322 698.639228,864.527483 L699.481348,872.735973 C699.604717,873.9385 699.691099,875.144534 699.740373,876.352368 L699.924323,880.861534 C699.95799,881.6868 699.974323,882.512681 699.973312,883.338632 L699.966649,888.782644 C699.965646,889.602851 699.947538,890.422949 699.912339,891.242401 L699.635613,897.684756 C699.600066,898.512309 699.547096,899.339022 699.476738,900.164344 L698.885351,907.101455 C698.815644,907.919147 698.728883,908.735295 698.625126,909.549367 L697.649753,917.202086 C697.545377,918.021019 697.423823,918.83767 697.285173,919.651501 L695.872837,927.941466 C695.734139,928.75558 695.578363,929.566692 695.405612,930.374266 L693.489035,939.333857 C693.316497,940.140436 693.127064,940.943309 692.92086,941.741945 L690.464072,951.257207 C690.269858,952.009405 690.060807,952.757694 689.837041,953.501636 L687.077326,962.676687 L687.077326,962.676687 C671.608051,968.551039 655.860287,973.664932 639.890589,978 L632.2611,972.197793 C631.643113,971.727815 631.034462,971.245684 630.435504,970.751682 L622.850198,964.495562 C622.214248,963.971051 621.589361,963.433269 620.975947,962.88257 L614.154559,956.758597 C613.540372,956.207204 612.937824,955.642984 612.347311,955.066308 L606.327818,949.187866 C605.737492,948.611373 605.159325,948.022559 604.593698,947.421814 L599.302638,941.802252 C598.740348,941.205052 598.190573,940.59619 597.653671,939.976064 L593.094269,934.709915 C592.552336,934.083978 592.023639,933.446704 591.508529,932.798515 L587.494814,927.747851 C586.984725,927.10598 586.488071,926.453547 586.005174,925.790975 L582.797234,921.389429 C582.310935,920.722188 581.838695,920.044813 581.380827,919.357751 L578.876889,915.600419 C578.206728,914.594797 577.567622,913.568822 576.960475,912.523946 L572.813388,905.38698 C571.99228,903.973885 571.230241,902.527283 570.529244,901.050916 L568.335597,896.430887 C567.627187,894.938907 566.981738,893.417839 566.400955,891.871701 L565.306878,888.95909 C564.934183,887.966914 564.598813,886.961115 564.301476,885.943812 C564.005776,884.932111 563.866664,883.881112 563.888971,882.82732 L564.011804,877.02465 C564.042667,875.566687 564.019465,874.108081 563.942246,872.651837 L563.710756,868.286251 C563.628019,866.725953 563.483333,865.169557 563.27704,863.620744 L562.833999,860.294466 C562.610823,858.618894 562.315741,856.953688 561.949571,855.303457 L561.459169,853.093344 C561.05754,851.28331 560.570815,849.493213 560.000613,847.729013 L559.668871,846.702606 C559.036867,844.74719 558.303132,842.826129 557.470666,840.947278 L557.319255,840.605547 C556.54361,838.85494 555.66581,837.151403 554.690389,835.503736 L554.55217,835.270258 C553.669047,833.778498 552.686942,832.3476 551.612459,830.987181 L551.460544,830.794839 C550.487578,829.562954 549.421056,828.40794 548.270464,827.340071 L548.117636,827.198231 C547.069298,826.225264 545.936424,825.347555 544.732429,824.575497 L544.59731,824.488852 C543.483897,823.77488 542.300675,823.176142 541.065952,822.701903 C539.833081,822.228376 538.544716,821.914455 537.232205,821.767779 L536.873883,821.727736 C535.320046,821.554092 533.754051,821.515914 532.193598,821.613634 L523.051089,822.186168 C522.258409,822.235808 521.464806,822.269437 520.670768,822.287034 L508.307225,822.561033 C507.435849,822.580344 506.564151,822.580344 505.692775,822.561033 L493.329232,822.287034 C492.535194,822.269437 491.741591,822.235808 490.948911,822.186168 L481.806402,821.613634 C480.245949,821.515914 478.679954,821.554092 477.126117,821.727736 L476.767795,821.767779 C475.455284,821.914455 474.166919,822.228376 472.934048,822.701903 C471.699325,823.176142 470.516103,823.77488 469.40269,824.488852 L469.267571,824.575497 C468.063576,825.347555 466.930702,826.225264 465.882364,827.198231 L465.729536,827.340071 C464.578944,828.40794 463.512422,829.562954 462.539456,830.794839 L462.387541,830.987181 C461.313058,832.3476 460.330953,833.778498 459.44783,835.270258 L459.309611,835.503736 C458.33419,837.151403 457.45639,838.85494 456.680745,840.605547 L456.529334,840.947278 C455.696868,842.826129 454.963133,844.74719 454.331129,846.702606 L453.999387,847.729013 C453.429185,849.493213 452.94246,851.28331 452.540831,853.093344 L452.050429,855.303457 C451.684259,856.953688 451.389177,858.618894 451.166001,860.294466 L450.72296,863.620744 C450.516667,865.169557 450.371981,866.725953 450.289244,868.286251 L450.057754,872.651837 C449.980535,874.108081 449.957333,875.566687 449.988196,877.02465 L450.111029,882.82732 C450.133336,883.881112 449.994224,884.932111 449.698524,885.943812 C449.401187,886.961115 449.065817,887.966914 448.693122,888.95909 L447.599045,891.871701 C447.018262,893.417839 446.372813,894.938907 445.664403,896.430887 L443.470756,901.050916 C442.769759,902.527283 442.00772,903.973885 441.186612,905.38698 L437.039525,912.523946 C436.432378,913.568822 435.793272,914.594797 435.123111,915.600419 L432.619173,919.357751 C432.161305,920.044813 431.689065,920.722188 431.202766,921.389429 L427.994826,925.790975 C427.511929,926.453547 427.015275,927.10598 426.505186,927.747851 L422.491471,932.798515 C421.976361,933.446704 421.447664,934.083978 420.905731,934.709915 L416.346329,939.976064 C415.809427,940.59619 415.259652,941.205052 414.697362,941.802252 L409.406302,947.421814 C408.840675,948.022559 408.262508,948.611373 407.672182,949.187866 L401.652689,955.066308 C401.062176,955.642984 400.459628,956.207204 399.845441,956.758597 L393.024053,962.88257 C392.410639,963.433269 391.785752,963.971051 391.149802,964.495562 L383.564496,970.751682 C382.965538,971.245684 382.356887,971.727815 381.7389,972.197793 L374.109411,978 L374.109411,978 C358.139713,973.664932 342.391949,968.551039 326.922674,962.676687 L324.162959,953.501636 C323.939193,952.757694 323.730142,952.009405 323.535928,951.257207 L321.07914,941.741945 C320.872936,940.943309 320.683503,940.140436 320.510965,939.333857 L318.594388,930.374266 C318.421637,929.566692 318.265861,928.75558 318.127163,927.941466 L316.714827,919.651501 C316.576177,918.83767 316.454623,918.021019 316.350247,917.202086 L315.374874,909.549367 C315.271117,908.735295 315.184356,907.919147 315.114649,907.101455 L314.523262,900.164344 C314.452904,899.339022 314.399934,898.512309 314.364387,897.684756 L314.087661,891.242401 C314.052462,890.422949 314.034354,889.602851 314.033351,888.782644 L314.026688,883.338632 C314.025677,882.512681 314.04201,881.6868 314.075677,880.861534 L314.259627,876.352368 C314.308901,875.144534 314.395283,873.9385 314.518652,872.735973 L315.360772,864.527483 C315.527602,862.901322 315.761944,861.282797 316.06319,859.676097 L317.005371,854.65096 C317.309771,853.027442 317.682216,851.417423 318.121722,849.825159 L318.949429,846.826503 C319.231439,845.804823 319.551652,844.794075 319.909392,843.796387 C320.265162,842.804191 320.770663,841.872276 321.408345,841.032998 L324.921293,836.409462 C325.803204,835.248743 326.641794,834.055738 327.435337,832.832903 L329.816729,829.163219 C330.667048,827.852893 331.464995,826.509314 332.208683,825.135659 L333.807294,822.182887 C334.611929,820.696658 335.352333,819.176542 336.026456,817.626744 L336.9299,815.549745 C337.669389,813.849673 338.328336,812.115691 338.904547,810.35357 L339.239802,809.328325 C339.87855,807.374958 340.4148,805.389551 340.846358,803.380222 L340.924799,803.015007 C341.326817,801.143216 341.618522,799.249424 341.798407,797.343418 L341.823915,797.073141 C341.986767,795.347615 342.033755,793.613112 341.964561,791.881299 L341.954772,791.636293 C341.892121,790.068207 341.708569,788.507294 341.40575,786.967451 L341.36551,786.762829 C341.089615,785.359893 340.689298,783.984322 340.169306,782.652422 L340.11095,782.502951 C339.630079,781.271257 339.024954,780.091769 338.304952,778.98276 C337.58603,777.875416 336.72837,776.864615 335.752867,775.97498 L335.486418,775.731985 C334.331462,774.678695 333.087054,773.72789 331.767269,772.890326 L324.034436,767.9829 C323.363614,767.557182 322.701461,767.117958 322.04838,766.665495 L311.886044,759.624904 C311.169321,759.12835 310.463694,758.615969 309.769682,758.088138 L299.929728,750.604358 C299.297284,750.123354 298.674622,749.629622 298.062123,749.123465 L291.003168,743.290095 C289.798093,742.294246 288.508662,741.405129 287.149461,740.632801 L286.836306,740.45486 C285.688013,739.802374 284.460984,739.299428 283.185083,738.958262 C281.907263,738.616583 280.597977,738.405887 279.277476,738.329431 L279.116954,738.320137 C277.68884,738.237451 276.256201,738.282011 274.835986,738.45329 L274.628736,738.478285 C273.069856,738.666287 271.527786,738.974165 270.016228,739.399186 L269.780087,739.465584 C268.110727,739.934974 266.474678,740.515643 264.882924,741.203691 L264.633736,741.311405 C262.875586,742.071379 261.16356,742.933898 259.506492,743.894512 L259.180428,744.083534 C257.403693,745.113519 255.681949,746.23557 254.022225,747.445104 L253.14575,748.08384 C251.648267,749.17514 250.203026,750.336377 248.814831,751.563693 L247.114843,753.066667 C245.849136,754.18569 244.632077,755.358561 243.467031,756.582038 L241.149776,759.015511 C240.072794,760.146507 239.041144,761.319819 238.057262,762.532674 L235.300623,765.930852 C234.382287,767.062908 233.50622,768.228609 232.674227,769.425555 L229.360347,774.193063 C228.758565,775.058817 228.027883,775.827416 227.193656,776.472192 C226.354814,777.120535 225.491976,777.737224 224.606959,778.320961 L222.006849,780.035932 C220.629021,780.944715 219.213665,781.795279 217.764515,782.585382 L213.268451,785.036715 C211.834475,785.818545 210.368653,786.540493 208.874773,787.200694 L201.318525,790.540083 C200.213905,791.028256 199.094556,791.482398 197.962061,791.901867 L193.723835,793.471679 C192.950079,793.758273 192.170396,794.028604 191.385301,794.282494 L186.199206,795.959608 C185.419592,796.211725 184.634811,796.447574 183.845373,796.667002 L177.625675,798.395794 C176.828449,798.617387 176.02665,798.822184 175.220809,799.010049 L168.432971,800.592495 C167.634592,800.778621 166.832419,800.948087 166.026977,801.100782 L158.439455,802.539221 C157.629209,802.692827 156.815831,802.829429 155.999857,802.948935 L147.670864,804.168789 C146.854605,804.288337 146.035929,804.390752 145.215375,804.475967 L136.093356,805.423287 C135.273805,805.508397 134.452561,805.57633 133.630165,805.627041 L123.81259,806.232414 C123.038,806.280177 122.262544,806.312653 121.486673,806.329821 L111.901185,806.541933 L111.901185,806.541933 C101.530945,793.653294 91.7982915,780.264949 82.7381776,766.42498 L85.9015303,757.380919 C86.1580048,756.647656 86.428936,755.919529 86.7141654,755.196966 L90.3227554,746.055427 C90.6255778,745.288295 90.9444521,744.527597 91.2791681,743.773835 L94.9980959,735.39901 C95.3332065,734.644359 95.6841222,733.896826 96.0506113,733.156905 L99.7837686,725.619868 C100.150111,724.880243 100.531933,724.148387 100.928984,723.424783 L104.640997,716.659832 C105.03567,715.94056 105.445304,715.229598 105.869631,714.527411 L109.471565,708.566831 C109.89983,707.858126 110.342968,707.158516 110.800683,706.468465 L114.366347,701.092875 C114.819561,700.409611 115.286968,699.735868 115.768264,699.072086 L118.965416,694.662717 C119.450061,693.994317 119.948683,693.336162 120.460951,692.68869 L123.262914,689.147197 C124.012616,688.199623 124.79125,687.275304 125.597715,686.375545 L131.108643,680.227097 C132.199145,679.010442 133.339715,677.83961 134.527402,676.717629 L138.247972,673.20289 C139.448021,672.06923 140.695122,670.986438 141.985982,669.95737 L144.420859,668.016297 C145.249888,667.355398 146.103388,666.725791 146.979561,666.128801 C147.850917,665.535093 148.807939,665.078123 149.817444,664.773737 L155.380603,663.096332 C156.775408,662.67577 158.154157,662.203691 159.514015,661.681067 L163.602879,660.109625 C165.060003,659.54962 166.494328,658.932006 167.902468,658.258241 L170.936674,656.806439 C172.460207,656.077462 173.951735,655.283401 175.407138,654.42645 L177.364031,653.274219 C178.960579,652.334161 180.511961,651.319421 182.013018,650.233374 L182.891654,649.597662 C184.555692,648.393695 186.155726,647.103656 187.68522,645.732814 L187.965608,645.481511 C189.391611,644.203426 190.741337,642.842712 192.007818,641.406394 L192.187526,641.202587 C193.334006,639.902363 194.392065,638.52677 195.354592,637.085056 L195.490887,636.880907 C196.362334,635.575616 197.131791,634.205044 197.792411,632.781391 L197.880302,632.591983 C198.482115,631.295059 198.967211,629.947106 199.329837,628.564104 L199.370597,628.408653 C199.705898,627.129865 199.909996,625.820234 199.979726,624.500058 C200.049351,623.181868 199.94994,621.860188 199.683918,620.567244 L199.611312,620.214362 C199.29639,618.68375 198.848811,617.18346 198.273645,615.730486 L194.904238,607.218753 C194.611621,606.47955 194.333975,605.734507 194.07147,604.984082 L189.991427,593.320443 C189.703345,592.496902 189.433566,591.667073 189.182289,590.831567 L185.623586,578.998738 C185.394605,578.237367 185.181037,577.471446 184.983014,576.701444 L182.703141,567.8363 C182.313901,566.322762 181.793636,564.845983 181.148238,563.422688 L180.999563,563.094816 C180.454298,561.892345 179.757386,560.764599 178.92581,559.73906 C178.09298,558.711976 177.157694,557.772399 176.134433,556.934876 L176.009914,556.832959 C174.903176,555.927112 173.717999,555.121582 172.468415,554.425905 L172.285861,554.324273 C170.914135,553.560596 169.485577,552.903804 168.012886,552.359732 L167.782576,552.274646 C166.15598,551.673716 164.490964,551.182397 162.798705,550.803987 L162.533537,550.744692 C160.66421,550.326688 158.771964,550.018748 156.866556,549.822461 L156.489958,549.783666 C154.447752,549.573286 152.395957,549.469643 150.342946,549.47316 L149.254836,549.475024 C147.402707,549.478196 145.551755,549.568581 143.708129,549.745876 L141.445097,549.963504 C139.76428,550.125143 138.091177,550.358864 136.430409,550.664022 L133.120602,551.272182 C131.585461,551.554257 130.062117,551.897139 128.554167,552.300019 L124.321548,553.430849 C122.914114,553.806873 121.521091,554.234896 120.145342,554.714037 L114.658418,556.625004 C113.662504,556.971857 112.619414,557.164403 111.565301,557.195966 C110.505363,557.227704 109.444608,557.219736 108.385267,557.172078 L105.272066,557.03202 C103.623666,556.957861 101.979102,556.814584 100.342712,556.602564 L95.2619085,555.944269 C93.6424873,555.734448 92.0324751,555.457486 90.4360308,555.114099 L82.3580632,553.376566 C81.1774943,553.122631 80.0049997,552.832512 78.8422363,552.506618 L74.4899363,551.286774 C73.6954466,551.064098 72.9057154,550.82478 72.121264,550.568979 L66.9392943,548.879191 C66.1602765,548.625162 65.3866351,548.354931 64.6188736,548.068675 L58.5705003,545.813572 C57.7951224,545.524477 57.0259124,545.2191 56.2633809,544.897646 L49.8416245,542.190475 C49.0861119,541.87198 48.3373203,541.53777 47.5957377,541.188064 L40.6118888,537.89471 C39.8658432,537.5429 39.1272572,537.175483 38.3966179,536.792702 L30.9416227,532.887043 C30.2106898,532.504108 29.4878708,532.105882 28.7736429,531.692626 L20.8375057,527.100739 C20.1241147,526.687968 19.4194514,526.260293 18.7239797,525.817997 L10.4263301,520.540974 C9.77125641,520.124369 9.12446912,519.694876 8.48634605,519.252745 L0.607277135,513.793641 L0.607277135,513.793641 C-0.202425712,497.274452 -0.202425712,480.725548 0.607277135,464.206359 L8.48634605,458.747255 C9.12446912,458.305124 9.77125641,457.875631 10.4263301,457.459026 L18.7239797,452.182003 C19.4194514,451.739707 20.1241147,451.312032 20.8375057,450.899261 L28.7736429,446.307374 C29.4878708,445.894118 30.2106898,445.495892 30.9416227,445.112957 L38.3966179,441.207298 C39.1272572,440.824517 39.8658432,440.4571 40.6118888,440.10529 L47.5957377,436.811936 C48.3373203,436.46223 49.0861119,436.12802 49.8416245,435.809525 L56.2633809,433.102354 C57.0259124,432.7809 57.7951224,432.475523 58.5705003,432.186428 L64.6188736,429.931325 C65.3866351,429.645069 66.1602765,429.374838 66.9392943,429.120809 L72.121264,427.431021 C72.9057154,427.17522 73.6954466,426.935902 74.4899363,426.713226 L78.8422363,425.493382 C80.0049997,425.167488 81.1774943,424.877369 82.3580632,424.623434 L90.4360308,422.885901 C92.0324751,422.542514 93.6424873,422.265552 95.2619085,422.055731 L100.342712,421.397436 C101.979102,421.185416 103.623666,421.042139 105.272066,420.96798 L108.385267,420.827922 C109.444608,420.780264 110.505363,420.772296 111.565301,420.804034 C112.619414,420.835597 113.662504,421.028143 114.658418,421.374996 L120.145342,423.285963 C121.521091,423.765104 122.914114,424.193127 124.321548,424.569151 L128.554167,425.699981 C130.062117,426.102861 131.585461,426.445743 133.120602,426.727818 L136.430409,427.335978 C138.091177,427.641136 139.76428,427.874857 141.445097,428.036496 L143.708129,428.254124 C145.551755,428.431419 147.402707,428.521804 149.254836,428.524976 L150.342946,428.52684 C152.395957,428.530357 154.447752,428.426714 156.489958,428.216334 L156.866556,428.177539 C158.771964,427.981252 160.66421,427.673312 162.533537,427.255308 L162.798705,427.196013 C164.490964,426.817603 166.15598,426.326284 167.782576,425.725354 L168.012886,425.640268 C169.485577,425.096196 170.914135,424.439404 172.285861,423.675727 L172.468415,423.574095 C173.717999,422.878418 174.903176,422.072888 176.009914,421.167041 L176.134433,421.065124 C177.157694,420.227601 178.09298,419.288024 178.92581,418.26094 C179.757386,417.235401 180.454298,416.107655 180.999563,414.905184 L181.148238,414.577312 C181.793636,413.154017 182.313901,411.677238 182.703141,410.1637 L184.983014,401.298556 C185.181037,400.528554 185.394605,399.762633 185.623586,399.001262 L189.182289,387.168433 C189.433566,386.332927 189.703345,385.503098 189.991427,384.679557 L194.07147,373.015918 C194.333975,372.265493 194.611621,371.52045 194.904238,370.781247 L198.273645,362.269514 C198.848811,360.81654 199.29639,359.31625 199.611312,357.785638 L199.683918,357.432756 C199.94994,356.139812 200.049351,354.818132 199.979726,353.499942 C199.909996,352.179766 199.705898,350.870135 199.370597,349.591347 L199.329837,349.435896 C198.967211,348.052894 198.482115,346.704941 197.880302,345.408017 L197.792411,345.218609 C197.131791,343.794956 196.362334,342.424384 195.490887,341.119093 L195.354592,340.914944 C194.392065,339.47323 193.334006,338.097637 192.187526,336.797413 L192.007818,336.593606 C190.741337,335.157288 189.391611,333.796574 187.965608,332.518489 L187.68522,332.267186 C186.155726,330.896344 184.555692,329.606305 182.891654,328.402338 L182.013018,327.766626 C180.511961,326.680579 178.960579,325.665839 177.364031,324.725781 L175.407138,323.57355 C173.951735,322.716599 172.460207,321.922538 170.936674,321.193561 L167.902468,319.741759 C166.494328,319.067994 165.060003,318.45038 163.602879,317.890375 L159.514015,316.318933 C158.154157,315.796309 156.775408,315.32423 155.380603,314.903668 L149.817444,313.226263 C148.807939,312.921877 147.850917,312.464907 146.979561,311.871199 C146.103388,311.274209 145.249888,310.644602 144.420859,309.983703 L141.985982,308.04263 C140.695122,307.013562 139.448021,305.93077 138.247972,304.79711 L134.527402,301.282371 C133.339715,300.16039 132.199145,298.989558 131.108643,297.772903 L125.597715,291.624455 C124.79125,290.724696 124.012616,289.800377 123.262914,288.852803 L120.460951,285.31131 C119.948683,284.663838 119.450061,284.005683 118.965416,283.337283 L115.768264,278.927914 C115.286968,278.264132 114.819561,277.590389 114.366347,276.907125 L110.800683,271.531535 C110.342968,270.841484 109.89983,270.141874 109.471565,269.433169 L105.869631,263.472589 C105.445304,262.770402 105.03567,262.05944 104.640997,261.340168 L100.928984,254.575217 C100.531933,253.851613 100.150111,253.119757 99.7837686,252.380132 L96.0506113,244.843095 C95.6841222,244.103174 95.3332065,243.355641 94.9980959,242.60099 L91.2791681,234.226165 C90.9444521,233.472403 90.6255778,232.711705 90.3227554,231.944573 L86.7141654,222.803034 C86.428936,222.080471 86.1580048,221.352344 85.9015303,220.619081 L82.7381776,211.57502 L82.7381776,211.57502 C91.7982915,197.735051 101.530945,184.346706 111.901185,171.458067 L121.486673,171.670179 C122.262544,171.687347 123.038,171.719823 123.81259,171.767586 L133.630165,172.372959 C134.452561,172.42367 135.273805,172.491603 136.093356,172.576713 L145.215375,173.524033 C146.035929,173.609248 146.854605,173.711663 147.670864,173.831211 L155.999857,175.051065 C156.815831,175.170571 157.629209,175.307173 158.439455,175.460779 L166.026977,176.899218 C166.832419,177.051913 167.634592,177.221379 168.432971,177.407505 L175.220809,178.989951 C176.02665,179.177816 176.828449,179.382613 177.625675,179.604206 L183.845373,181.332998 C184.634811,181.552426 185.419592,181.788275 186.199206,182.040392 L191.385301,183.717506 C192.170396,183.971396 192.950079,184.241727 193.723835,184.528321 L197.962061,186.098133 C199.094556,186.517602 200.213905,186.971744 201.318525,187.459917 L208.874773,190.799306 C210.368653,191.459507 211.834475,192.181455 213.268451,192.963285 L217.764515,195.414618 C219.213665,196.204721 220.629021,197.055285 222.006849,197.964068 L224.606959,199.679039 C225.491976,200.262776 226.354814,200.879465 227.193656,201.527808 C228.027883,202.172584 228.758565,202.941183 229.360347,203.806937 L232.674227,208.574445 C233.50622,209.771391 234.382287,210.937092 235.300623,212.069148 L238.057262,215.467326 C239.041144,216.680181 240.072794,217.853493 241.149776,218.984489 L243.467031,221.417962 C244.632077,222.641439 245.849136,223.81431 247.114843,224.933333 L248.814831,226.436307 C250.203026,227.663623 251.648267,228.82486 253.14575,229.91616 L254.022225,230.554896 C255.681949,231.76443 257.403693,232.886481 259.180428,233.916466 L259.506492,234.105488 C261.16356,235.066102 262.875586,235.928621 264.633736,236.688595 L264.882924,236.796309 C266.474678,237.484357 268.110727,238.065026 269.780087,238.534416 L270.016228,238.600814 C271.527786,239.025835 273.069856,239.333713 274.628736,239.521715 L274.835986,239.54671 C276.256201,239.717989 277.68884,239.762549 279.116954,239.679863 L279.277476,239.670569 C280.597977,239.594113 281.907263,239.383417 283.185083,239.041738 C284.460984,238.700572 285.688013,238.197626 286.836306,237.54514 L287.149461,237.367199 C288.508662,236.594871 289.798093,235.705754 291.003168,234.709905 L298.062123,228.876535 C298.674622,228.370378 299.297284,227.876646 299.929728,227.395642 L309.769682,219.911862 C310.463694,219.384031 311.169321,218.87165 311.886044,218.375096 L322.04838,211.334505 C322.701461,210.882042 323.363614,210.442818 324.034436,210.0171 L331.767269,205.109674 C333.087054,204.27211 334.331462,203.321305 335.486418,202.268015 L335.752867,202.02502 C336.72837,201.135385 337.58603,200.124584 338.304952,199.01724 C339.024954,197.908231 339.630079,196.728743 340.11095,195.497049 L340.169306,195.347578 C340.689298,194.015678 341.089615,192.640107 341.36551,191.237171 L341.40575,191.032549 C341.708569,189.492706 341.892121,187.931793 341.954772,186.363707 L341.964561,186.118701 C342.033755,184.386888 341.986767,182.652385 341.823915,180.926859 L341.798407,180.656582 C341.618522,178.750576 341.326817,176.856784 340.924799,174.984993 L340.846358,174.619778 C340.4148,172.610449 339.87855,170.625042 339.239802,168.671675 L338.904547,167.64643 C338.328336,165.884309 337.669389,164.150327 336.9299,162.450255 L336.026456,160.373256 C335.352333,158.823458 334.611929,157.303342 333.807294,155.817113 L332.208683,152.864341 C331.464995,151.490686 330.667048,150.147107 329.816729,148.836781 L327.435337,145.167097 C326.641794,143.944262 325.803204,142.751257 324.921293,141.590538 L321.408345,136.967002 C320.770663,136.127724 320.265162,135.195809 319.909392,134.203613 C319.551652,133.205925 319.231439,132.195177 318.949429,131.173497 L318.121722,128.174841 C317.682216,126.582577 317.309771,124.972558 317.005371,123.34904 L316.06319,118.323903 C315.761944,116.717203 315.527602,115.098678 315.360772,113.472517 L314.518652,105.264027 C314.395283,104.0615 314.308901,102.855466 314.259627,101.647632 L314.075677,97.1384657 C314.04201,96.3132003 314.025677,95.4873189 314.026688,94.6613677 L314.033351,89.217356 C314.034354,88.3971486 314.052462,87.5770513 314.087661,86.7575989 L314.364387,80.3152438 C314.399934,79.4876908 314.452904,78.6609782 314.523262,77.8356557 L315.114649,70.8985451 C315.184356,70.0808533 315.271117,69.2647049 315.374874,68.4506326 L316.350247,60.7979136 C316.454623,59.9789812 316.576177,59.1623298 316.714827,58.3484988 L318.127163,50.058534 C318.265861,49.24442 318.421637,48.4333079 318.594388,47.6257339 L320.510965,38.6661429 C320.683503,37.8595636 320.872936,37.0566911 321.07914,36.258055 L323.535928,26.7427928 C323.730142,25.9905948 323.939193,25.242306 324.162959,24.4983642 L326.922674,15.3233128 L326.922674,15.3233128 C342.391949,9.44896082 358.139713,4.33506826 374.109411,0 L381.7389,5.80220721 C382.356887,6.27218537 382.965538,6.7543161 383.564496,7.2483177 L391.149802,13.5044377 C391.785752,14.0289492 392.410639,14.5667313 393.024053,15.1174298 L399.845441,21.2414031 C400.459628,21.7927959 401.062176,22.3570163 401.652689,22.9336917 L407.672182,28.8121343 C408.262508,29.3886273 408.840675,29.9774407 409.406302,30.5781857 L414.697362,36.1977477 C415.259652,36.7949483 415.809427,37.4038099 416.346329,38.0239356 L420.905731,43.2900849 C421.447664,43.9160216 421.976361,44.5532963 422.491471,45.2014855 L426.505186,50.2521485 C427.015275,50.8940196 427.511929,51.5464534 427.994826,52.2090247 L431.202766,56.6105709 C431.689065,57.2778118 432.161305,57.9551871 432.619173,58.6422493 L435.123111,62.3995806 C435.793272,63.4052032 436.432378,64.4311782 437.039525,65.4760537 L441.186612,72.61302 C442.00772,74.0261146 442.769759,75.472717 443.470756,76.9490839 L445.664403,81.5691129 C446.372813,83.0610929 447.018262,84.5821614 447.599045,86.1282989 L448.693122,89.0409103 C449.065817,90.0330862 449.401187,91.0388852 449.698524,92.0561883 C449.994224,93.0678886 450.133336,94.1188878 450.111029,95.1726801 L449.988196,100.97535 C449.957333,102.433313 449.980535,103.891919 450.057754,105.348163 L450.289244,109.713749 C450.371981,111.274047 450.516667,112.830443 450.72296,114.379256 L451.166001,117.705534 C451.389177,119.381106 451.684259,121.046312 452.050429,122.696543 L452.540831,124.906656 C452.94246,126.71669 453.429185,128.506787 453.999387,130.270987 L454.331129,131.297394 C454.963133,133.25281 455.696868,135.173871 456.529334,137.052722 L456.680745,137.394453 C457.45639,139.14506 458.33419,140.848597 459.309611,142.496264 L459.44783,142.729742 C460.330953,144.221502 461.313058,145.6524 462.387541,147.012819 L462.539456,147.205161 C463.512422,148.437046 464.578944,149.59206 465.729536,150.659929 L465.882364,150.801769 C466.930702,151.774736 468.063576,152.652445 469.267571,153.424503 L469.40269,153.511148 C470.516103,154.22512 471.699325,154.823858 472.934048,155.298097 C474.166919,155.771624 475.455284,156.085545 476.767795,156.232221 L477.126117,156.272264 C478.679954,156.445908 480.245949,156.484086 481.806402,156.386366 L490.948911,155.813832 C491.741591,155.764192 492.535194,155.730563 493.329232,155.712966 L505.692775,155.438967 C506.564151,155.419656 507.435849,155.419656 508.307225,155.438967 L520.670768,155.712966 C521.464806,155.730563 522.258409,155.764192 523.051089,155.813832 L532.193598,156.386366 C533.754051,156.484086 535.320046,156.445908 536.873883,156.272264 L537.232205,156.232221 C538.544716,156.085545 539.833081,155.771624 541.065952,155.298097 C542.300675,154.823858 543.483897,154.22512 544.59731,153.511148 L544.732429,153.424503 C545.936424,152.652445 547.069298,151.774736 548.117636,150.801769 L548.270464,150.659929 C549.421056,149.59206 550.487578,148.437046 551.460544,147.205161 L551.612459,147.012819 C552.686942,145.6524 553.669047,144.221502 554.55217,142.729742 L554.690389,142.496264 C555.66581,140.848597 556.54361,139.14506 557.319255,137.394453 L557.470666,137.052722 C558.303132,135.173871 559.036867,133.25281 559.668871,131.297394 L560.000613,130.270987 C560.570815,128.506787 561.05754,126.71669 561.459169,124.906656 L561.949571,122.696543 C562.315741,121.046312 562.610823,119.381106 562.833999,117.705534 L563.27704,114.379256 C563.483333,112.830443 563.628019,111.274047 563.710756,109.713749 L563.942246,105.348163 C564.019465,103.891919 564.042667,102.433313 564.011804,100.97535 L563.888971,95.1726801 C563.866664,94.1188878 564.005776,93.0678886 564.301476,92.0561883 C564.598813,91.0388852 564.934183,90.0330862 565.306878,89.0409103 L566.400955,86.1282989 C566.981738,84.5821614 567.627187,83.0610929 568.335597,81.5691129 L570.529244,76.9490839 C571.230241,75.472717 571.99228,74.0261146 572.813388,72.61302 L576.960475,65.4760537 C577.567622,64.4311782 578.206728,63.4052032 578.876889,62.3995806 L581.380827,58.6422493 C581.838695,57.9551871 582.310935,57.2778118 582.797234,56.6105709 L586.005174,52.2090247 C586.488071,51.5464534 586.984725,50.8940196 587.494814,50.2521485 L591.508529,45.2014855 C592.023639,44.5532963 592.552336,43.9160216 593.094269,43.2900849 L597.653671,38.0239356 C598.190573,37.4038099 598.740348,36.7949483 599.302638,36.1977477 L604.593698,30.5781857 C605.159325,29.9774407 605.737492,29.3886273 606.327818,28.8121343 L612.347311,22.9336917 C612.937824,22.3570163 613.540372,21.7927959 614.154559,21.2414031 L620.975947,15.1174298 C621.589361,14.5667313 622.214248,14.0289492 622.850198,13.5044377 L630.435504,7.2483177 C631.034462,6.7543161 631.643113,6.27218537 632.2611,5.80220721 L639.890589,0 L639.890589,0 C655.860287,4.33506826 671.608051,9.44896082 687.077326,15.3233128 L689.837041,24.4983642 C690.060807,25.242306 690.269858,25.9905948 690.464072,26.7427928 L692.92086,36.258055 C693.127064,37.0566911 693.316497,37.8595636 693.489035,38.6661429 L695.405612,47.6257339 C695.578363,48.4333079 695.734139,49.24442 695.872837,50.058534 L697.285173,58.3484988 C697.423823,59.1623298 697.545377,59.9789812 697.649753,60.7979136 L698.625126,68.4506326 C698.728883,69.2647049 698.815644,70.0808533 698.885351,70.8985451 L699.476738,77.8356557 C699.547096,78.6609782 699.600066,79.4876908 699.635613,80.3152438 L699.912339,86.7575989 C699.947538,87.5770513 699.965646,88.3971486 699.966649,89.217356 L699.973312,94.6613677 C699.974323,95.4873189 699.95799,96.3132003 699.924323,97.1384657 L699.740373,101.647632 C699.691099,102.855466 699.604717,104.0615 699.481348,105.264027 L698.639228,113.472517 C698.472398,115.098678 698.238056,116.717203 697.93681,118.323903 L696.994629,123.34904 C696.690229,124.972558 696.317784,126.582577 695.878278,128.174841 L695.050571,131.173497 C694.768561,132.195177 694.448348,133.205925 694.090608,134.203613 C693.734838,135.195809 693.229337,136.127724 692.591655,136.967002 L689.078707,141.590538 C688.196796,142.751257 687.358206,143.944262 686.564663,145.167097 L684.183271,148.836781 C683.332952,150.147107 682.535005,151.490686 681.791317,152.864341 L680.192706,155.817113 C679.388071,157.303342 678.647667,158.823458 677.973544,160.373256 L677.0701,162.450255 C676.330611,164.150327 675.671664,165.884309 675.095453,167.64643 L674.760198,168.671675 C674.12145,170.625042 673.5852,172.610449 673.153642,174.619778 L673.075201,174.984993 C672.673183,176.856784 672.381478,178.750576 672.201593,180.656582 L672.176085,180.926859 C672.013233,182.652385 671.966245,184.386888 672.035439,186.118701 L672.045228,186.363707 C672.107879,187.931793 672.291431,189.492706 672.59425,191.032549 L672.63449,191.237171 C672.910385,192.640107 673.310702,194.015678 673.830694,195.347578 L673.88905,195.497049 C674.369921,196.728743 674.975046,197.908231 675.695048,199.01724 C676.41397,200.124584 677.27163,201.135385 678.247133,202.02502 L678.513582,202.268015 C679.668538,203.321305 680.912946,204.27211 682.232731,205.109674 L689.965564,210.0171 C690.636386,210.442818 691.298539,210.882042 691.95162,211.334505 L702.113956,218.375096 C702.830679,218.87165 703.536306,219.384031 704.230318,219.911862 L714.070272,227.395642 C714.702716,227.876646 715.325378,228.370378 715.937877,228.876535 L722.996832,234.709905 C724.201907,235.705754 725.491338,236.594871 726.850539,237.367199 L727.163694,237.54514 C728.311987,238.197626 729.539016,238.700572 730.814917,239.041738 C732.092737,239.383417 733.402023,239.594113 734.722524,239.670569 L734.883046,239.679863 C736.31116,239.762549 737.743799,239.717989 739.164014,239.54671 L739.371264,239.521715 C740.930144,239.333713 742.472214,239.025835 743.983772,238.600814 L744.219913,238.534416 C745.889273,238.065026 747.525322,237.484357 749.117076,236.796309 L749.366264,236.688595 C751.124414,235.928621 752.83644,235.066102 754.493508,234.105488 L754.819572,233.916466 C756.596307,232.886481 758.318051,231.76443 759.977775,230.554896 L760.85425,229.91616 C762.351733,228.82486 763.796974,227.663623 765.185169,226.436307 L766.885157,224.933333 C768.150864,223.81431 769.367923,222.641439 770.532969,221.417962 L772.850224,218.984489 C773.927206,217.853493 774.958856,216.680181 775.942738,215.467326 L778.699377,212.069148 C779.617713,210.937092 780.49378,209.771391 781.325773,208.574445 L784.639653,203.806937 C785.241435,202.941183 785.972117,202.172584 786.806344,201.527808 C787.645186,200.879465 788.508024,200.262776 789.393041,199.679039 L791.993151,197.964068 C793.370979,197.055285 794.786335,196.204721 796.235485,195.414618 L800.731549,192.963285 C802.165525,192.181455 803.631347,191.459507 805.125227,190.799306 L812.681475,187.459917 C813.786095,186.971744 814.905444,186.517602 816.037939,186.098133 L820.276165,184.528321 C821.049921,184.241727 821.829604,183.971396 822.614699,183.717506 L827.800794,182.040392 C828.580408,181.788275 829.365189,181.552426 830.154627,181.332998 L836.374325,179.604206 C837.171551,179.382613 837.97335,179.177816 838.779191,178.989951 L845.567029,177.407505 C846.365408,177.221379 847.167581,177.051913 847.973023,176.899218 L855.560545,175.460779 C856.370791,175.307173 857.184169,175.170571 858.000143,175.051065 L866.329136,173.831211 C867.145395,173.711663 867.964071,173.609248 868.784625,173.524033 L877.906644,172.576713 C878.726195,172.491603 879.547439,172.42367 880.369835,172.372959 L890.18741,171.767586 C890.962,171.719823 891.737456,171.687347 892.513327,171.670179 L902.098815,171.458067 L902.098815,171.458067 C912.469055,184.346706 922.201709,197.735051 931.261822,211.57502 L928.09847,220.619081 C927.841995,221.352344 927.571064,222.080471 927.285835,222.803034 Z" id="Gear" stroke-width="4"></path>
            <path d="M281,279.608623 L482.703922,526.465766 L482.703922,345.089131 L807.492812,704 L727.164375,704 L545.644992,511.698739 L543.561462,700.421865 L343.886275,453.488714 L343.886275,704 L281,704 L281,279.608623 Z" id="Metal-Logo" stroke-width="4" fill-rule="nonzero"></path>
        </g>
    </g>
</svg>